<?xml version="1.0" encoding="UTF-8" standalone="no"?>
<!DOCTYPE svg PUBLIC "-//W3C//DTD SVG 1.1//EN"
 "http://www.w3.org/Graphics/SVG/1.1/DTD/svg11.dtd">
<!-- Generated by graphviz version 2.38.0 (20140413.2041)
 -->
<!-- Title: SimpleMTT Pages: 1 -->
<svg width="1658pt" height="393pt"
 viewBox="0.00 0.00 1658.00 393.00" xmlns="http://www.w3.org/2000/svg" xmlns:xlink="http://www.w3.org/1999/xlink">
<g id="graph0" class="graph" transform="scale(1 1) rotate(0) translate(4 389)">
<title>SimpleMTT</title>
<polygon fill="white" stroke="none" points="-4,4 -4,-389 1654,-389 1654,4 -4,4"/>
<g id="clust1" class="cluster"><title>cluster_TargetsData</title>
<polygon fill="none" stroke="black" points="386,-110 386,-239 704,-239 704,-110 386,-110"/>
<text text-anchor="middle" x="545" y="-223.8" font-family="Times New Roman,serif" font-size="14.00">Target Data</text>
</g>
<g id="clust2" class="cluster"><title>cluster_Settings</title>
<polygon fill="none" stroke="black" points="392,-247 392,-376 682,-376 682,-247 392,-247"/>
<text text-anchor="middle" x="537" y="-360.8" font-family="Times New Roman,serif" font-size="14.00">Tool Settings</text>
</g>
<g id="clust3" class="cluster"><title>cluster_Outputs</title>
<polygon fill="none" stroke="black" points="1058,-164 1058,-239 1294,-239 1294,-164 1058,-164"/>
<text text-anchor="middle" x="1176" y="-223.8" font-family="Times New Roman,serif" font-size="14.00">Tool Output</text>
</g>
<!-- TargetATMVols -->
<g id="node1" class="node"><title>TargetATMVols</title>
<polygon fill="none" stroke="purple" points="685,-208 575,-208 575,-172 685,-172 685,-208"/>
<text text-anchor="middle" x="630" y="-186.3" font-family="Times New Roman,serif" font-size="14.00">TargetATMVols</text>
</g>
<!-- MCEquityExtrapolation -->
<g id="node10" class="node"><title>MCEquityExtrapolation</title>
<polygon fill="none" stroke="blue" points="732,-132.5 732,-247.5 1030,-247.5 1030,-132.5 732,-132.5"/>
<text text-anchor="middle" x="821.5" y="-186.3" font-family="Times New Roman,serif" font-size="14.00">MCEquityExtrapolation Tool</text>
<polyline fill="none" stroke="blue" points="911,-132.5 911,-247.5 "/>
<text text-anchor="middle" x="970.5" y="-232.3" font-family="Times New Roman,serif" font-size="14.00">#Stream#</text>
<polyline fill="none" stroke="blue" points="911,-224.5 1030,-224.5 "/>
<text text-anchor="middle" x="970.5" y="-209.3" font-family="Times New Roman,serif" font-size="14.00">NONE</text>
<polyline fill="none" stroke="blue" points="911,-201.5 1030,-201.5 "/>
<text text-anchor="middle" x="970.5" y="-186.3" font-family="Times New Roman,serif" font-size="14.00">Market Consistent</text>
<polyline fill="none" stroke="blue" points="911,-178.5 1030,-178.5 "/>
<text text-anchor="middle" x="970.5" y="-163.3" font-family="Times New Roman,serif" font-size="14.00">#EquityAsset#</text>
<polyline fill="none" stroke="blue" points="911,-155.5 1030,-155.5 "/>
<text text-anchor="middle" x="970.5" y="-140.3" font-family="Times New Roman,serif" font-size="14.00">#SubModel#</text>
</g>
<!-- TargetATMVols&#45;&gt;MCEquityExtrapolation -->
<g id="edge6" class="edge"><title>TargetATMVols&#45;&gt;MCEquityExtrapolation</title>
<path fill="none" stroke="black" d="M685.029,-190C696.37,-190 708.874,-190 721.91,-190"/>
<polygon fill="black" stroke="black" points="721.971,-193.5 731.971,-190 721.971,-186.5 721.971,-193.5"/>
</g>
<!-- LTUnconditionalVol -->
<g id="node2" class="node"><title>LTUnconditionalVol</title>
<polygon fill="none" stroke="purple" points="696,-154 564,-154 564,-118 696,-118 696,-154"/>
<text text-anchor="middle" x="630" y="-132.3" font-family="Times New Roman,serif" font-size="14.00">LTUnconditionalVol</text>
</g>
<!-- LTUnconditionalVol&#45;&gt;MCEquityExtrapolation -->
<g id="edge7" class="edge"><title>LTUnconditionalVol&#45;&gt;MCEquityExtrapolation</title>
<path fill="none" stroke="black" d="M696.097,-150.117C704.35,-151.907 713.059,-153.796 722.018,-155.739"/>
<polygon fill="black" stroke="black" points="721.313,-159.167 731.828,-157.866 722.797,-152.326 721.313,-159.167"/>
</g>
<!-- ImpliedVolatilityData -->
<g id="node3" class="node"><title>ImpliedVolatilityData</title>
<polygon fill="none" stroke="blue" points="528,-208 394,-208 394,-172 528,-172 528,-208"/>
<text text-anchor="middle" x="461" y="-186.3" font-family="Times New Roman,serif" font-size="14.00">ImpliedVolatilityData</text>
</g>
<!-- ImpliedVolatilityData&#45;&gt;TargetATMVols -->
<g id="edge1" class="edge"><title>ImpliedVolatilityData&#45;&gt;TargetATMVols</title>
<path fill="none" stroke="black" d="M528.003,-190C539.99,-190 552.482,-190 564.427,-190"/>
<polygon fill="black" stroke="black" points="564.758,-193.5 574.758,-190 564.758,-186.5 564.758,-193.5"/>
</g>
<!-- LT_Target -->
<g id="node4" class="node"><title>LT_Target</title>
<polygon fill="none" stroke="blue" points="499.5,-154 422.5,-154 422.5,-118 499.5,-118 499.5,-154"/>
<text text-anchor="middle" x="461" y="-132.3" font-family="Times New Roman,serif" font-size="14.00">LT_Target</text>
</g>
<!-- LT_Target&#45;&gt;LTUnconditionalVol -->
<g id="edge2" class="edge"><title>LT_Target&#45;&gt;LTUnconditionalVol</title>
<path fill="none" stroke="black" d="M499.895,-136C515.81,-136 534.913,-136 553.484,-136"/>
<polygon fill="black" stroke="black" points="553.723,-139.5 563.723,-136 553.723,-132.5 553.723,-139.5"/>
</g>
<!-- ToolSettings -->
<g id="node5" class="node"><title>ToolSettings</title>
<polygon fill="none" stroke="orange" points="674,-291 586,-291 586,-255 674,-255 674,-291"/>
<text text-anchor="middle" x="630" y="-269.3" font-family="Times New Roman,serif" font-size="14.00">ToolSettings</text>
</g>
<!-- ToolSettings&#45;&gt;MCEquityExtrapolation -->
<g id="edge8" class="edge"><title>ToolSettings&#45;&gt;MCEquityExtrapolation</title>
<path fill="none" stroke="black" d="M674.088,-258.637C688.123,-253.959 704.615,-248.462 722.053,-242.649"/>
<polygon fill="black" stroke="black" points="723.449,-245.873 731.829,-239.39 721.235,-239.232 723.449,-245.873"/>
</g>
<!-- CalibrationSettings -->
<g id="node6" class="node"><title>CalibrationSettings</title>
<polygon fill="none" stroke="blue" points="522,-345 400,-345 400,-309 522,-309 522,-345"/>
<text text-anchor="middle" x="461" y="-323.3" font-family="Times New Roman,serif" font-size="14.00">CalibrationSettings</text>
</g>
<!-- CalibrationSettings&#45;&gt;ToolSettings -->
<g id="edge3" class="edge"><title>CalibrationSettings&#45;&gt;ToolSettings</title>
<path fill="none" stroke="black" d="M518.073,-308.869C536.788,-302.817 557.57,-296.097 576.041,-290.125"/>
<polygon fill="black" stroke="black" points="577.312,-293.392 585.75,-286.985 575.158,-286.732 577.312,-293.392"/>
</g>
<!-- OptimiserSettings -->
<g id="node7" class="node"><title>OptimiserSettings</title>
<polygon fill="none" stroke="blue" points="519,-291 403,-291 403,-255 519,-255 519,-291"/>
<text text-anchor="middle" x="461" y="-269.3" font-family="Times New Roman,serif" font-size="14.00">OptimiserSettings</text>
</g>
<!-- OptimiserSettings&#45;&gt;ToolSettings -->
<g id="edge4" class="edge"><title>OptimiserSettings&#45;&gt;ToolSettings</title>
<path fill="none" stroke="black" stroke-dasharray="5,2" d="M519.005,-273C537.416,-273 557.743,-273 575.863,-273"/>
<polygon fill="black" stroke="black" points="575.959,-276.5 585.959,-273 575.959,-269.5 575.959,-276.5"/>
</g>
<!-- ToolOutput -->
<g id="node8" class="node"><title>ToolOutput</title>
<polygon fill="none" stroke="purple" points="1149,-208 1066,-208 1066,-172 1149,-172 1149,-208"/>
<text text-anchor="middle" x="1107.5" y="-186.3" font-family="Times New Roman,serif" font-size="14.00">ToolOutput</text>
</g>
<!-- ExtrapolatedIV -->
<g id="node9" class="node"><title>ExtrapolatedIV</title>
<polygon fill="none" stroke="blue" points="1286,-208 1185,-208 1185,-172 1286,-172 1286,-208"/>
<text text-anchor="middle" x="1235.5" y="-186.3" font-family="Times New Roman,serif" font-size="14.00">ExtrapolatedIV</text>
</g>
<!-- ToolOutput&#45;&gt;ExtrapolatedIV -->
<g id="edge5" class="edge"><title>ToolOutput&#45;&gt;ExtrapolatedIV</title>
<path fill="none" stroke="black" d="M1149.06,-190C1157.23,-190 1165.98,-190 1174.65,-190"/>
<polygon fill="black" stroke="black" points="1174.75,-193.5 1184.75,-190 1174.75,-186.5 1174.75,-193.5"/>
</g>
<!-- Outputs_Model -->
<g id="node11" class="node"><title>Outputs_Model</title>
<polygon fill="none" stroke="green" points="1322,-132.5 1322,-247.5 1650,-247.5 1650,-132.5 1322,-132.5"/>
<text text-anchor="middle" x="1426.5" y="-186.3" font-family="Times New Roman,serif" font-size="14.00">MarketData.Equity.ExtrapolatedIV</text>
<polyline fill="none" stroke="green" points="1531,-132.5 1531,-247.5 "/>
<text text-anchor="middle" x="1590.5" y="-232.3" font-family="Times New Roman,serif" font-size="14.00">#Stream#</text>
<polyline fill="none" stroke="green" points="1531,-224.5 1650,-224.5 "/>
<text text-anchor="middle" x="1590.5" y="-209.3" font-family="Times New Roman,serif" font-size="14.00">NONE</text>
<polyline fill="none" stroke="green" points="1531,-201.5 1650,-201.5 "/>
<text text-anchor="middle" x="1590.5" y="-186.3" font-family="Times New Roman,serif" font-size="14.00">Market Consistent</text>
<polyline fill="none" stroke="green" points="1531,-178.5 1650,-178.5 "/>
<text text-anchor="middle" x="1590.5" y="-163.3" font-family="Times New Roman,serif" font-size="14.00">#EquityAsset#</text>
<polyline fill="none" stroke="green" points="1531,-155.5 1650,-155.5 "/>
<text text-anchor="middle" x="1590.5" y="-140.3" font-family="Times New Roman,serif" font-size="14.00">#SubModel#</text>
</g>
<!-- ExtrapolatedIV&#45;&gt;Outputs_Model -->
<g id="edge10" class="edge"><title>ExtrapolatedIV&#45;&gt;Outputs_Model</title>
<path fill="none" stroke="black" d="M1286.19,-190C1294.2,-190 1302.86,-190 1311.94,-190"/>
<polygon fill="black" stroke="black" points="1311.94,-193.5 1321.94,-190 1311.94,-186.5 1311.94,-193.5"/>
</g>
<!-- MCEquityExtrapolation&#45;&gt;ToolOutput -->
<g id="edge9" class="edge"><title>MCEquityExtrapolation&#45;&gt;ToolOutput</title>
<path fill="none" stroke="black" d="M1030.18,-190C1039.06,-190 1047.6,-190 1055.54,-190"/>
<polygon fill="black" stroke="black" points="1055.63,-193.5 1065.63,-190 1055.63,-186.5 1055.63,-193.5"/>
</g>
<!-- Settings_Group -->
<g id="node12" class="node"><title>Settings_Group</title>
<polygon fill="none" stroke="orange" points="0,-269.5 0,-384.5 358,-384.5 358,-269.5 0,-269.5"/>
<text text-anchor="middle" x="119.5" y="-323.3" font-family="Times New Roman,serif" font-size="14.00">Settings.MarketData.Equity.ToolOutput</text>
<polyline fill="none" stroke="orange" points="239,-269.5 239,-384.5 "/>
<text text-anchor="middle" x="298.5" y="-369.3" font-family="Times New Roman,serif" font-size="14.00">#Stream#</text>
<polyline fill="none" stroke="orange" points="239,-361.5 358,-361.5 "/>
<text text-anchor="middle" x="298.5" y="-346.3" font-family="Times New Roman,serif" font-size="14.00">NONE</text>
<polyline fill="none" stroke="orange" points="239,-338.5 358,-338.5 "/>
<text text-anchor="middle" x="298.5" y="-323.3" font-family="Times New Roman,serif" font-size="14.00">Market Consistent</text>
<polyline fill="none" stroke="orange" points="239,-315.5 358,-315.5 "/>
<text text-anchor="middle" x="298.5" y="-300.3" font-family="Times New Roman,serif" font-size="14.00">E_ALL</text>
<polyline fill="none" stroke="orange" points="239,-292.5 358,-292.5 "/>
<text text-anchor="middle" x="298.5" y="-277.3" font-family="Times New Roman,serif" font-size="14.00">FEA_VolTargets</text>
</g>
<!-- Settings_Group&#45;&gt;CalibrationSettings -->
<g id="edge11" class="edge"><title>Settings_Group&#45;&gt;CalibrationSettings</title>
<path fill="none" stroke="black" d="M358.122,-327C369.088,-327 379.717,-327 389.71,-327"/>
<polygon fill="black" stroke="black" points="389.881,-330.5 399.881,-327 389.881,-323.5 389.881,-330.5"/>
</g>
<!-- MarketData_Model -->
<g id="node13" class="node"><title>MarketData_Model</title>
<polygon fill="none" stroke="green" points="0,-134.5 0,-249.5 358,-249.5 358,-134.5 0,-134.5"/>
<text text-anchor="middle" x="119.5" y="-188.3" font-family="Times New Roman,serif" font-size="14.00">ImpliedVolatilityData.Equity.ImpliedVol</text>
<polyline fill="none" stroke="green" points="239,-134.5 239,-249.5 "/>
<text text-anchor="middle" x="298.5" y="-234.3" font-family="Times New Roman,serif" font-size="14.00">B+H_Market</text>
<polyline fill="none" stroke="green" points="239,-226.5 358,-226.5 "/>
<text text-anchor="middle" x="298.5" y="-211.3" font-family="Times New Roman,serif" font-size="14.00">G</text>
<polyline fill="none" stroke="green" points="239,-203.5 358,-203.5 "/>
<text text-anchor="middle" x="298.5" y="-188.3" font-family="Times New Roman,serif" font-size="14.00">Market Consistent</text>
<polyline fill="none" stroke="green" points="239,-180.5 358,-180.5 "/>
<text text-anchor="middle" x="298.5" y="-165.3" font-family="Times New Roman,serif" font-size="14.00">#EquityAsset#</text>
<polyline fill="none" stroke="green" points="239,-157.5 358,-157.5 "/>
<text text-anchor="middle" x="298.5" y="-142.3" font-family="Times New Roman,serif" font-size="14.00">#SubModel#</text>
</g>
<!-- MarketData_Model&#45;&gt;ImpliedVolatilityData -->
<g id="edge12" class="edge"><title>MarketData_Model&#45;&gt;ImpliedVolatilityData</title>
<path fill="none" stroke="black" d="M358.122,-190.728C366.918,-190.665 375.498,-190.604 383.706,-190.545"/>
<polygon fill="black" stroke="black" points="383.919,-194.044 393.893,-190.472 383.868,-187.044 383.919,-194.044"/>
</g>
<!-- LT_Target_Model -->
<g id="node14" class="node"><title>LT_Target_Model</title>
<polygon fill="none" stroke="green" points="26.5,-0.5 26.5,-115.5 331.5,-115.5 331.5,-0.5 26.5,-0.5"/>
<text text-anchor="middle" x="119.5" y="-54.3" font-family="Times New Roman,serif" font-size="14.00">TargetData.MC.EquityIVLimit</text>
<polyline fill="none" stroke="green" points="212.5,-0.5 212.5,-115.5 "/>
<text text-anchor="middle" x="272" y="-100.3" font-family="Times New Roman,serif" font-size="14.00">NYC_Market</text>
<polyline fill="none" stroke="green" points="212.5,-92.5 331.5,-92.5 "/>
<text text-anchor="middle" x="272" y="-77.3" font-family="Times New Roman,serif" font-size="14.00">NONE</text>
<polyline fill="none" stroke="green" points="212.5,-69.5 331.5,-69.5 "/>
<text text-anchor="middle" x="272" y="-54.3" font-family="Times New Roman,serif" font-size="14.00">Market Consistent</text>
<polyline fill="none" stroke="green" points="212.5,-46.5 331.5,-46.5 "/>
<text text-anchor="middle" x="272" y="-31.3" font-family="Times New Roman,serif" font-size="14.00">#EquityAsset#</text>
<polyline fill="none" stroke="green" points="212.5,-23.5 331.5,-23.5 "/>
<text text-anchor="middle" x="272" y="-8.3" font-family="Times New Roman,serif" font-size="14.00">#SubModel#</text>
</g>
<!-- LT_Target_Model&#45;&gt;LT_Target -->
<g id="edge13" class="edge"><title>LT_Target_Model&#45;&gt;LT_Target</title>
<path fill="none" stroke="black" d="M331.882,-100.31C361.223,-108.484 389.863,-116.462 412.597,-122.795"/>
<polygon fill="black" stroke="black" points="411.712,-126.182 422.285,-125.494 413.591,-119.438 411.712,-126.182"/>
</g>
</g>
</svg>
